<svg xmlns="http://www.w3.org/2000/svg" viewBox="0 0 150 94">
<!-- SVG created with Arrow, by QuiverAI (https://quiver.ai) -->
  <style type="text/css">.cls-0 {fill:#4E545B;}
.cls-1 {fill:#777C86;}
.cls-2 {fill:#343A40;}
.cls-3 {fill:#036057;}
.cls-4 {fill:#054D47;}
.cls-5 {fill:#015F57;}</style>
  <path class="cls-0" d="m88.8 34.3c-0.6 4.7-4.6 9.2-10.2 9.2h-11.3v20.1h12c15.7 0 30-12.5 30-31.9l-0.1-5.6-20.3 7.9"/>
  <polyline class="cls-1" points="84.7 1.8 109.2 26.1 84.6 26.1"/>
  <path class="cls-2" d="m86.4 26.1c1.4 1.3 2.5 3.4 2.5 6v2.1l20.5-7.7v-0.4h-23z"/>
  <path class="cls-4" d="m77.5 21.5h7.2v-19.7l-7.2 19.7z"/>
  <path class="cls-5" d="m62.4 1.8c-7.6 0-15.4 6.7-15.5 15.4v68.3h1.8c8.9 0 18.5-7.6 18.5-19.5v-44.5h10.5l7-19.7h-22.3z"/>
  <path class="cls-3" d="m67.3 21.5"/>
  <path class="cls-5" d="m77.5 21.4"/>
  <path class="cls-3" d="m67.3 21.4"/>
  <path class="cls-5" d="m77.5 21.4"/>
  <path class="cls-4" d="m78.6 21.1-1.1 0.3 7.2-19.4v22c-1.7-1.7-3.6-2.6-6.1-2.9z"/>
</svg>